<?xml version="1.0" encoding="UTF-8"?>
<svg
	width="24"
	height="24"
	version="1.1"
	id="logo"
	stroke="#51a5d8"
	xmlns="http://www.w3.org/2000/svg">
	<!-- stroke="#16466f" -->
	<g
		fill="none"
		stroke-width="1"
		stroke-linecap="round"
		stroke-linejoin="round">
		<path d="M 4,4 L 23,4 L 20,16 L 7,17" />
	</g>
	<g
		fill="none"
		stroke-width="1"
		stroke-linecap="round"
		stroke-linejoin="round">
		<path d="M 1,1 L 3,1 L 7,17 Q 6,18 7,19 L 20,19" />
		<circle cx="9" cy="21.75" r="1.65" />
		<circle cx="19" cy="21.75" r="1.65" />
	</g>
	<g
		id="oe"
		fill="none"
		stroke-width="1"
		stroke-linecap="round"
		stroke-linejoin="round"
		aria-label="OE">
		<g>
			<path
				d="M 7.5,10.5 q 0,1.62 0.684,2.556 0.684001,0.924 2.136,0.924 1.464,0 2.136001,-0.924 0.671999,-0.936 0.671999,-2.556 0,-1.62 -0.671999,-2.532 -0.672001,-0.924 -2.124001,-0.924 -1.452,0 -2.148,0.924 -0.684,0.912 -0.684,2.532 z" />
		</g>
		<g>
			<path d="M 18.5,7.2 h -4 v 3.35 h 3.75 h -3.75 v 3.35 h 4" />
		</g>
	</g>
</svg>